# xmcd
# 
# Track frame offsets:
#     150
#     17107
#     36868
#     48241
#     64604
#     85289
#     95559
#     115544
#     137504
#     161574
#     183732
#     196710
#     210318
# 
# Disc length: 3294
# 
# Revision: 0
# Processed by: cddbd v1.5.2PL0 Copyright (c) Steve Scherf et al.
# Submitted via: fre:ac v1.0.27
# 
DISCID=a40cdc0d
DTITLE=Barrule - Barrule
DYEAR=2012
DGENRE=Folk
TTITLE0=Mylecharaine's March
TTITLE1=In Search of Manannan
TTITLE2=Arrane y Chlean
TTITLE3=The Girls of Balladoole
TTITLE4=She Lhong Honnick Mee
TTITLE5=Five Hours Behind
TTITLE6=Allen Barbara
TTITLE7=Langness
TTITLE8="Engage!"
TTITLE9=Ny Kirree fo Niaghtey
TTITLE10=Europop Vona
TTITLE11=O My Graih
TTITLE12=Irree ny Greiney
EXTD=
EXTT0=
EXTT1=
EXTT2=
EXTT3=
EXTT4=
EXTT5=
EXTT6=
EXTT7=
EXTT8=
EXTT9=
EXTT10=
EXTT11=
EXTT12=
PLAYORDER=
